<svg width="50px" height="10px" viewBox="0 0 50 10" xmlns="http://www.w3.org/2000/svg">
  <g fill="#ffffff" fill-rule="evenodd">
    <path d="m6.64243,5.98055c-0.45545,0.7866 -1.3899,1.16696 -2.27059,0.92427c-0.88069,-0.24259 -1.48398,-1.04656 -1.46596,-1.95364c0.01809,-0.90705 0.65288,-1.6867 1.54254,-1.89462c0.88966,-0.20788 1.80826,0.20882 2.23207,1.01254l1.6851,-0.75448c-0.80158,-1.62222 -2.6242,-2.48149 -4.39747,-2.07307c-1.77313,0.40838 -3.0284,1.97652 -3.0284,3.78336c0,1.80674 1.25526,3.37485 3.0284,3.78325c1.77327,0.4084 3.59595,-0.45085 4.39747,-2.07304l-1.72316,-0.75458l0,0l0,0.00001z"/>
    <path d="m14.67598,1.22716c2.13658,0 3.86874,1.71929 3.86874,3.84008c0,2.12075 -1.73216,3.84004 -3.86874,3.84004c-2.13665,0 -3.86867,-1.71929 -3.86867,-3.84004c0,-2.12079 1.73202,-3.84008 3.86867,-3.84008l0,0zm0,1.81216c1.12832,0 2.04309,0.90799 2.04309,2.02793c0,1.11994 -0.91477,2.02789 -2.04309,2.02789c-1.12832,0 -2.04302,-0.90795 -2.04302,-2.02789c0,-1.11993 0.9147,-2.02793 2.04302,-2.02793l0,0z"/>
    <path d="m21.5335,1.36516l15.11509,0c1.9023,0 3.4588,1.54498 3.4588,3.43319l0,0.42762c0,1.88821 -1.5565,3.43318 -3.4588,3.43318l-15.11509,0l0,-7.29399zm15.14049,1.81069l0,0l-13.20189,0l0,3.76025l13.15509,-0.03334l0.0464,-0.00063c0.8572,0 1.5589,-0.69991 1.5589,-1.55072l0,-0.62854c0,-0.85088 -0.7013,-1.54703 -1.5585,-1.54703l0,0l0,-0.00001l0,0.00002z"/>
    <path d="m42.95105,1.34575l1.90042,0l3.77559,0l0,1.82352l-3.77559,0l0,1.07208l3.12313,0l0,1.71349l-3.12313,0l0,0.93696l3.77559,0l0,1.82346l-3.77559,0l-1.90042,0l0,-7.36951"/>
    <path d="m25.3281,4.78931c0.0003,0.01982 -0.0024,0.0394 -0.0076,0.05926c-0.0053,0.01954 -0.0147,0.03781 -0.0282,0.05408c-0.0137,0.01631 -0.0328,0.02963 -0.0571,0.03944c-0.0246,0.01009 -0.0562,0.01496 -0.0943,0.01534l-0.0787,0l0,-0.34022l0.0827,0c0.0449,0.00035 0.081,0.00911 0.108,0.02543c0.0269,0.01655 0.0463,0.03777 0.0578,0.06389c0.0118,0.02605 0.0177,0.05346 0.0174,0.08277l0,0l0,0.00001zm-0.6185,0.88952l0.3526,0l0,-0.44963l0.0945,0c0.1176,-0.00038 0.2154,-0.0186 0.2931,-0.05443c0.0779,-0.03555 0.1359,-0.08671 0.1747,-0.15289c0.0387,-0.06612 0.0582,-0.14496 0.0582,-0.23654c-0.0004,-0.07526 -0.0142,-0.14041 -0.0408,-0.19581c-0.0269,-0.0554 -0.064,-0.10104 -0.1112,-0.13714c-0.0477,-0.03589 -0.1029,-0.06291 -0.1655,-0.08052c-0.0628,-0.0176 -0.1304,-0.0264 -0.2026,-0.0264l-0.453,0l0,1.33334l0,0.00001l0,0.00001zm1.8672,-0.55717c0.0473,-0.01635 0.0897,-0.04041 0.1271,-0.07234c0.0374,-0.03231 0.0673,-0.07199 0.0892,-0.11995c0.022,-0.04789 0.0335,-0.10361 0.034,-0.1675c0.0002,-0.06058 -0.0093,-0.11595 -0.0283,-0.16649c-0.019,-0.0505 -0.0496,-0.09449 -0.0919,-0.13196c-0.0424,-0.03711 -0.0982,-0.06612 -0.1674,-0.08667c-0.0694,-0.02052 -0.154,-0.03095 -0.2542,-0.03127l-0.4372,0l0,1.33334l0.3525,0l0,-0.50441l0.0355,0l0.3407,0.50441l0.4097,0l-0.4097,-0.55717l0,0.00001zm-0.1103,-0.34216c-0.0003,0.03391 -0.0075,0.06257 -0.022,0.08566c-0.0143,0.02316 -0.0341,0.04073 -0.059,0.05279c-0.025,0.01172 -0.0539,0.01794 -0.0864,0.01794l-0.0985,0l0,-0.31869l0.0966,0c0.0545,0.00035 0.0961,0.01496 0.1253,0.04365c0.0289,0.02866 0.0437,0.0681 0.044,0.11863l0,0l0,0.00001l0,0.00001zm0.8667,0.23264c0.0004,-0.05638 0.0095,-0.10886 0.0275,-0.15671c0.0178,-0.04755 0.0431,-0.08963 0.0755,-0.12513c0.0322,-0.03548 0.07,-0.06319 0.113,-0.08309c0.0432,-0.01955 0.09,-0.02963 0.1405,-0.02998c0.0539,0.00035 0.1024,0.01075 0.1454,0.03095c0.0431,0.02021 0.0797,0.04831 0.1103,0.08441c0.0305,0.03583 0.0542,0.07787 0.0703,0.12548c0.0164,0.04755 0.0246,0.09898 0.0246,0.15408c-0.0004,0.05607 -0.0092,0.10785 -0.0269,0.15575c-0.0175,0.04793 -0.0424,0.08963 -0.0742,0.12541c-0.0318,0.03558 -0.0692,0.06361 -0.1123,0.08347c-0.043,0.01986 -0.0903,0.02998 -0.1412,0.03029c-0.0505,-0.00031 -0.0971,-0.01043 -0.1398,-0.03029c-0.0427,-0.01986 -0.0801,-0.04789 -0.1115,-0.08347c-0.032,-0.03579 -0.0569,-0.07749 -0.0743,-0.12541c-0.0177,-0.04789 -0.0265,-0.09968 -0.0269,-0.15575l0,0l0,-0.00001l0,0zm-0.3585,0c0,0.05509 0.0062,0.11046 0.0184,0.16649c0.0125,0.0561 0.0312,0.1105 0.0564,0.16364c0.0257,0.05276 0.0575,0.10194 0.0962,0.14792c0.0388,0.0456 0.0848,0.08598 0.1377,0.12055c0.0524,0.03488 0.1124,0.06191 0.1797,0.08142c0.0674,0.01927 0.1422,0.02935 0.2246,0.0297c0.0817,-0.00035 0.1585,-0.0127 0.2305,-0.03683c0.0719,-0.02376 0.1372,-0.05767 0.196,-0.10166c0.0587,-0.04365 0.1092,-0.09512 0.1517,-0.15414c0.0426,-0.05926 0.0751,-0.12409 0.098,-0.19449c0.0231,-0.07074 0.0346,-0.14469 0.0349,-0.22259c0,-0.07429 -0.0106,-0.14628 -0.0309,-0.21567c-0.0207,-0.06946 -0.0508,-0.13401 -0.0903,-0.1939c-0.0397,-0.05965 -0.0883,-0.11175 -0.1454,-0.15679c-0.0574,-0.04494 -0.123,-0.07978 -0.1967,-0.10486c-0.0738,-0.02543 -0.1552,-0.03808 -0.2439,-0.03846c-0.0837,0.00038 -0.1621,0.01273 -0.235,0.03745c-0.0726,0.02445 -0.1385,0.05899 -0.1976,0.10302c-0.0591,0.04428 -0.1099,0.0961 -0.1523,0.1554c-0.0424,0.05961 -0.0749,0.12417 -0.0975,0.19421c-0.0227,0.07004 -0.0341,0.14336 -0.0345,0.2196l0,0l0,0.00001l0,-0.00002zm1.6111,-0.66665l0,1.33334l0.4708,0c0.0946,-0.00028 0.1812,-0.01169 0.2593,-0.03457c0.0782,-0.02282 0.1475,-0.05471 0.2079,-0.09606c0.0604,-0.04107 0.1112,-0.08963 0.1526,-0.14503c0.0417,-0.05572 0.0732,-0.11665 0.0945,-0.18277c0.0214,-0.06615 0.0322,-0.13557 0.0322,-0.20826c0,-0.07297 -0.0102,-0.14274 -0.0304,-0.20885c-0.0208,-0.06646 -0.051,-0.1274 -0.0914,-0.1828c-0.0404,-0.05575 -0.0902,-0.10392 -0.15,-0.14503c-0.0597,-0.04107 -0.129,-0.07297 -0.2074,-0.09543c-0.0785,-0.02282 -0.1665,-0.03422 -0.2634,-0.03454l-0.4747,0l0,0.00001l0,-0.00001zm0.3526,1.02833l0,-0.72335l0.1024,0c0.0914,0.00031 0.1668,0.016 0.2266,0.04629c0.0597,0.03061 0.104,0.07265 0.1336,0.12674c0.0291,0.05408 0.0437,0.117 0.0437,0.18864c0,0.04956 -0.0076,0.09644 -0.0233,0.13981c-0.0155,0.04365 -0.0395,0.0818 -0.0723,0.11498c-0.0325,0.03325 -0.0745,0.05934 -0.1254,0.07822c-0.0511,0.01892 -0.112,0.02834 -0.1829,0.02866l-0.1024,0l0,0.00001zm1.5561,0.34804c0.0794,0 0.1513,-0.01078 0.2157,-0.03255c0.0643,-0.02184 0.1192,-0.0561 0.1651,-0.10201c0.046,-0.04629 0.0814,-0.10559 0.106,-0.17789c0.0243,-0.07272 0.0367,-0.15939 0.0371,-0.26039l0,-0.80351l-0.3506,0l0,0.82695c0.0003,0.03488 -0.0023,0.06779 -0.0075,0.09846c-0.0049,0.03029 -0.0141,0.05732 -0.027,0.08076c-0.0128,0.02316 -0.0305,0.04146 -0.0535,0.05478c-0.0229,0.01336 -0.0521,0.01982 -0.0873,0.02017c-0.0545,0.00031 -0.0965,-0.02048 -0.1264,-0.06253c-0.0295,-0.04173 -0.0446,-0.10556 -0.045,-0.19163l0,-0.82695l-0.3525,0l0,0.80748c0.0003,0.10423 0.0135,0.19285 0.0393,0.26516c0.0257,0.07272 0.0622,0.13133 0.109,0.17599c0.047,0.045 0.1028,0.07721 0.1664,0.09773c0.0641,0.02024 0.1343,0.03033 0.2112,0.03001l0,0l0,0.00001l0,-0.00004zm1.3886,-1.41939c-0.1028,0.00066 -0.197,0.01826 -0.282,0.05349c-0.0853,0.03482 -0.1589,0.08403 -0.2213,0.14757c-0.0623,0.06354 -0.1103,0.13814 -0.1444,0.22349c-0.0338,0.08573 -0.0513,0.1796 -0.0515,0.28126c0.0002,0.0811 0.0108,0.15769 0.0318,0.22972c0.021,0.07164 0.0515,0.13713 0.0913,0.19616c0.0397,0.05926 0.0879,0.11011 0.1444,0.15314c0.0565,0.04264 0.1205,0.07592 0.1918,0.09902c0.0708,0.02348 0.1482,0.0352 0.2319,0.03555c0.0782,-0.00035 0.1498,-0.00977 0.2154,-0.02869c0.0654,-0.01888 0.1244,-0.04532 0.177,-0.07919c0.0526,-0.03356 0.0988,-0.07325 0.1382,-0.1186c0.0397,-0.04528 0.0726,-0.09415 0.0988,-0.14729c0.0259,-0.05311 0.0456,-0.10851 0.0581,-0.16583l-0.39,0c-0.0059,0.02834 -0.0157,0.05669 -0.0299,0.08504c-0.0138,0.02869 -0.0324,0.05506 -0.0558,0.07888c-0.0233,0.0241 -0.0519,0.04327 -0.0853,0.05794c-0.0338,0.01468 -0.0732,0.02216 -0.1185,0.0225c-0.0518,-0.00035 -0.0989,-0.01176 -0.1406,-0.03419c-0.0416,-0.02247 -0.0773,-0.05314 -0.1073,-0.09188c-0.0298,-0.03874 -0.0528,-0.08305 -0.0686,-0.13296c-0.016,-0.04984 -0.0242,-0.10232 -0.0242,-0.15738c0,-0.05669 0.0071,-0.1098 0.022,-0.15929c0.0144,-0.04956 0.036,-0.09355 0.0646,-0.13133c0.0285,-0.03781 0.064,-0.06744 0.106,-0.089c0.0424,-0.02149 0.091,-0.03255 0.1461,-0.0329c0.0394,0.00035 0.0755,0.0065 0.1081,0.01923c0.0324,0.01242 0.0609,0.02928 0.0852,0.0505c0.0243,0.02118 0.0441,0.04497 0.0592,0.07137c0.0148,0.0264 0.0246,0.05342 0.0292,0.08173l0.3761,0c-0.0068,-0.05078 -0.0216,-0.10093 -0.0446,-0.15084c-0.0233,-0.04949 -0.0538,-0.09644 -0.0919,-0.14041c-0.0381,-0.044 -0.0827,-0.08312 -0.1346,-0.11696c-0.0519,-0.03426 -0.11,-0.06062 -0.1746,-0.08017c-0.0643,-0.01955 -0.1343,-0.02928 -0.2101,-0.02966l0,0l0,0.00001l0,-0.00003l0,0zm1.0183,1.37637l0.3546,0l0,-1.03424l0.3013,0l0,-0.2991l-0.9572,0l0,0.2991l0.3013,0l0,1.03424zm0.7898,0l0.3526,0l0,-1.33334l-0.3526,0l0,1.33334zm0.8962,-0.66669c0.0004,-0.05638 0.0095,-0.10886 0.0276,-0.15671c0.0177,-0.04755 0.043,-0.08963 0.0755,-0.12513c0.0321,-0.03548 0.07,-0.06319 0.1129,-0.08309c0.0433,-0.01955 0.09,-0.02963 0.1406,-0.02998c0.0537,0.00035 0.1024,0.01075 0.1453,0.03095c0.043,0.02021 0.0798,0.04831 0.1103,0.08441c0.0306,0.03583 0.0542,0.07787 0.0703,0.12548c0.0164,0.04755 0.0246,0.09898 0.0246,0.15408c-0.0003,0.05607 -0.0092,0.10785 -0.0269,0.15575c-0.0174,0.04793 -0.0424,0.08963 -0.0742,0.12541c-0.0318,0.03558 -0.0692,0.06361 -0.1122,0.08347c-0.043,0.01986 -0.0903,0.02998 -0.1412,0.03029c-0.0506,-0.00031 -0.0972,-0.01043 -0.1399,-0.03029c-0.0426,-0.01986 -0.0801,-0.04789 -0.1116,-0.08347c-0.0318,-0.03579 -0.0568,-0.07749 -0.0742,-0.12541c-0.0176,-0.04789 -0.0265,-0.09968 -0.0269,-0.15575l0,0l0,-0.00001l0,0zm-0.3585,0c0,0.05509 0.0062,0.11046 0.0183,0.16649c0.0126,0.0561 0.0314,0.1105 0.0566,0.16364c0.0256,0.05276 0.0575,0.10194 0.0962,0.14792c0.0388,0.0456 0.0846,0.08598 0.1375,0.12055c0.0525,0.03488 0.1126,0.06191 0.1799,0.08142c0.0673,0.01927 0.1422,0.02935 0.2245,0.0297c0.0817,-0.00035 0.1586,-0.0127 0.2305,-0.03683c0.0719,-0.02376 0.1372,-0.05767 0.196,-0.10166c0.0588,-0.04365 0.1093,-0.09512 0.1516,-0.15414c0.0428,-0.05926 0.0752,-0.12409 0.0982,-0.19449c0.023,-0.07074 0.0344,-0.14468 0.0348,-0.22259c0,-0.07429 -0.0105,-0.14628 -0.0309,-0.21567c-0.0207,-0.06946 -0.0508,-0.13401 -0.0902,-0.1939c-0.0398,-0.05965 -0.0884,-0.11175 -0.1455,-0.15679c-0.0575,-0.04494 -0.1231,-0.07978 -0.1967,-0.10486c-0.0738,-0.02543 -0.1552,-0.03808 -0.2438,-0.03846c-0.0838,0.00038 -0.1622,0.01273 -0.2351,0.03745c-0.0725,0.02445 -0.1385,0.05899 -0.1976,0.10302c-0.0591,0.04428 -0.1099,0.0961 -0.1522,0.1554c-0.0425,0.05961 -0.075,0.12417 -0.0976,0.19421c-0.0226,0.07004 -0.0342,0.14336 -0.0345,0.2196l0,0l0,0.00001l0,-0.00002zm1.9046,-0.15244c0.0097,0.01523 0.0198,0.0329 0.0309,0.05273c0.0109,0.01986 0.0243,0.04368 0.0398,0.07168c0.0157,0.02768 0.0351,0.06159 0.0588,0.10138c0.0236,0.0394 0.0524,0.08664 0.0872,0.14173l0.2856,0.45161l0.2955,0l0,-1.33334l-0.2955,0l0,0.61584c0,0.01339 0.0003,0.02932 0.0007,0.04755c0.0003,0.01829 0.0009,0.03749 0.0016,0.0577c0.0006,0.02021 0.0014,0.03975 0.0019,0.05899c0.0008,0.01892 0.0015,0.03579 0.0018,0.05085l-0.006,0c-0.0085,-0.01604 -0.0173,-0.03294 -0.0259,-0.05085c-0.0088,-0.01791 -0.019,-0.03843 -0.0309,-0.06131c-0.0118,-0.02275 -0.0262,-0.04949 -0.0436,-0.08013c-0.0174,-0.03029 -0.0391,-0.06615 -0.065,-0.10684l-0.3348,-0.53178l-0.2975,0l0,1.33334l0.2954,0l0,-0.58064c0,-0.01402 -0.0002,-0.03161 -0.0009,-0.05248c-0.0007,-0.02083 -0.0013,-0.04302 -0.0022,-0.06612c-0.0008,-0.02313 -0.0018,-0.04528 -0.0027,-0.0665c-0.0006,-0.02115 -0.0013,-0.03882 -0.002,-0.05339l0.0078,0l0,-0.00001l0,-0.00001z"/>
  </g>
</svg>
