<svg width="8px" height="8px" viewBox="0 0 8 8" xmlns="http://www.w3.org/2000/svg">
  <path fill="#ffffff" d="m5.827081,0.005482c-0.466969,0 -0.925302,-0.015876 -1.38188,0.006497c-0.238438,0.011694 -0.483274,0.063098 -0.70857,0.144752c-0.557134,0.201963 -0.805067,0.657942 -0.852335,1.231427c-0.031374,0.380903 -0.018233,0.765622 -0.024837,1.148596c-0.00062,0.036381 -0.000069,0.072762 -0.000069,0.116654l-0.903559,0l0,1.327902l0.906139,0l0,3.969128l1.679041,0l0,-3.975705l1.136871,0c0.051258,-0.443027 0.101726,-0.87915 0.153638,-1.328023l-1.291816,0c0,-0.304649 -0.007224,-0.598173 0.002167,-0.891169c0.008429,-0.262868 0.119305,-0.378832 0.376078,-0.412695c0.109707,-0.014455 0.221409,-0.01612 0.332252,-0.017703c0.190894,-0.00268 0.381858,-0.000731 0.576881,-0.000731l0,-1.318928" />
</svg>
