<svg width="8px" height="8px" viewBox="0 0 8 8" xmlns="http://www.w3.org/2000/svg">
  <path fill="#ffffff" d="m0.014416,7.107506c0.887499,0.08284 1.683955,-0.186076 2.412078,-0.85323c-0.367284,-0.022593 -0.682746,-0.150691 -0.959117,-0.404614c-0.274838,-0.252542 -0.469302,-0.577206 -0.580763,-0.988764c0.239647,0.042535 0.472005,0.046195 0.715921,-0.033277c-0.817677,-0.3015 -1.249058,-0.957722 -1.307386,-2.003049c0.240333,0.151056 0.475655,0.239341 0.753192,0.251364c-0.363705,-0.32043 -0.59616,-0.721599 -0.689583,-1.23034c-0.092775,-0.50517 -0.030732,-0.984744 0.180114,-1.449202c0.89486,1.281975 2.020608,1.982447 3.39463,2.100345c-0.010742,-0.154107 -0.028708,-0.296908 -0.029394,-0.439882c-0.003941,-0.829789 0.383461,-1.566293 1.014843,-1.872914c0.658236,-0.319657 1.258559,-0.169054 1.783007,0.410668c0.04616,0.05103 0.085191,0.063663 0.143262,0.047287c0.331183,-0.093364 0.644139,-0.242144 0.96032,-0.464299c-0.130302,0.474251 -0.362207,0.818332 -0.679427,1.088958c0.306088,-0.032743 0.593592,-0.139394 0.886881,-0.267093c-0.0516,0.08581 -0.100556,0.174255 -0.155313,0.257015c-0.1736,0.262132 -0.368682,0.498465 -0.591958,0.697948c-0.045082,0.040267 -0.057322,0.082273 -0.056901,0.146709c0.011234,1.707314 -0.477116,3.168461 -1.479684,4.363577c-0.707289,0.843113 -1.566733,1.31631 -2.54632,1.472117c-1.106249,0.175957 -2.141308,-0.069921 -3.098765,-0.774696c-0.023634,-0.017387 -0.046455,-0.036364 -0.069625,-0.054643"/>
</svg>
