<svg width="8px" height="8px" viewBox="0 0 8 8" xmlns="http://www.w3.org/2000/svg">
  <path fill="#ffffff" d="m0.59109,4l0,4l2.451068,-0.032857l2.451069,-0.024638l0.619503,-0.287476c0.484827,-0.221761 0.691328,-0.377818 0.915783,-0.673512c0.745197,-1.026693 0.502785,-2.275146 -0.583588,-2.989726l-0.350151,-0.22998l0.475849,-0.418894c0.583586,-0.509237 0.736217,-0.928131 0.592564,-1.585215c-0.143652,-0.632446 -0.583588,-1.149892 -1.230022,-1.453796l-0.52972,-0.246409l-2.406177,-0.024638l-2.406177,-0.032857l0,4zm4.489139,-2.447632c0.439934,0.22998 0.565632,0.722789 0.323215,1.166321c-0.206497,0.35318 -0.484825,0.418895 -1.849521,0.418895l-1.256958,0l0,-0.862427l0,-0.862427l1.265934,0c1.023525,0 1.310829,0.024648 1.51733,0.139638zm0.044891,3.096507c0.161606,0.065704 0.368107,0.213552 0.45789,0.336751c0.188545,0.271047 0.215481,0.845998 0.035915,1.141683c-0.224457,0.402466 -0.493805,0.459961 -1.975219,0.459961l-1.346745,0l0,-1.026693l0,-1.026692l1.256962,0c0.888847,0 1.355716,0.032847 1.571197,0.11499z" />
</svg>

